<?xml version="1.0" standalone="no"?>
<!DOCTYPE svg PUBLIC "-//W3C//DTD SVG 20010904//EN"
 "http://www.w3.org/TR/2001/REC-SVG-20010904/DTD/svg10.dtd">
<svg version="1.0" xmlns="http://www.w3.org/2000/svg"
 width="1392.000000pt" height="1392.000000pt" viewBox="0 0 1392.000000 1392.000000"
 preserveAspectRatio="xMidYMid meet">
<metadata>
Created by potrace 1.11, written by Peter Selinger 2001-2013
</metadata>
<g transform="translate(0.000000,1392.000000) scale(0.100000,-0.100000)"
fill="#000000" stroke="none">
<path d="M4100 13885 c-12 -20 -27 -41 -33 -48 -7 -6 -35 -46 -62 -87 -44 -67
-50 -81 -52 -132 -1 -32 5 -79 12 -105 14 -53 44 -125 54 -133 3 -3 13 -18 21
-33 7 -15 42 -54 75 -85 67 -62 61 -57 257 -224 176 -152 227 -216 255 -321 8
-29 7 -235 0 -267 -7 -28 -20 -82 -22 -90 -7 -38 -77 -196 -108 -245 -24 -39
-97 -144 -109 -157 -7 -7 -37 -43 -67 -78 -30 -36 -62 -73 -70 -82 -69 -74
-154 -184 -195 -254 -36 -62 -104 -221 -112 -261 -2 -12 -9 -34 -14 -48 -5
-14 -7 -25 -5 -25 2 0 0 -11 -5 -25 -22 -57 -31 -271 -15 -360 3 -22 8 -52 10
-66 10 -73 80 -283 132 -399 12 -25 24 -52 27 -60 24 -59 182 -304 216 -335
11 -10 20 -21 20 -25 0 -10 65 -82 153 -171 78 -78 109 -93 127 -59 4 9 0 38
-10 70 -10 30 -16 58 -13 63 2 4 -1 7 -8 7 -7 0 -9 3 -6 6 3 4 2 14 -3 24 -5
9 -12 31 -15 49 -3 17 -12 59 -19 93 -8 35 -17 79 -21 98 -3 19 -7 44 -9 55
-3 11 -7 40 -11 65 -3 25 -9 59 -12 75 -3 17 -5 82 -6 145 0 130 20 214 78
331 31 61 119 198 135 209 4 3 11 12 16 21 19 35 128 152 334 360 229 231 316
323 331 350 5 10 15 24 23 32 15 14 105 173 105 183 -1 2 5 19 11 37 7 18 14
41 15 52 2 11 6 34 10 50 20 93 0 244 -52 395 -27 80 -107 237 -128 252 -7 5
-7 8 0 8 7 0 7 3 0 8 -6 4 -29 32 -52 62 -80 107 -192 210 -331 309 -39 28
-77 51 -82 51 -6 0 -10 5 -10 10 0 6 -4 10 -8 10 -5 0 -60 31 -123 70 -63 38
-130 78 -149 88 -34 18 -118 73 -170 109 -42 31 -136 130 -168 179 -30 46 -91
183 -102 232 -6 28 -13 52 -15 52 -2 0 -13 -16 -25 -35z"/>
<path d="M6733 12519 c-12 -15 -16 -34 -14 -59 0 -7 54 -66 119 -130 64 -64
142 -144 172 -179 30 -35 60 -69 65 -75 38 -41 195 -267 195 -281 0 -3 11 -23
25 -45 14 -22 22 -40 18 -40 -5 0 -3 -4 2 -8 9 -6 38 -68 78 -162 29 -69 75
-222 92 -305 21 -101 37 -200 40 -250 6 -81 6 -223 1 -260 -11 -74 -15 -93
-27 -135 -7 -25 -13 -49 -14 -55 -4 -18 -61 -130 -88 -173 -38 -59 -131 -167
-196 -227 -30 -27 -64 -59 -75 -70 -51 -49 -147 -115 -216 -148 -161 -77 -322
-81 -545 -14 -21 6 -96 48 -117 65 -23 19 -77 73 -93 94 -13 17 -66 107 -65
110 1 2 -3 16 -9 31 -44 115 -24 318 46 467 20 41 39 77 42 80 3 3 20 23 36
45 16 22 74 85 127 140 54 55 98 107 98 115 -1 21 -25 50 -42 50 -53 0 -538
-204 -590 -248 -10 -8 -18 -12 -18 -8 0 4 -6 2 -12 -4 -7 -5 -44 -31 -82 -56
-96 -65 -101 -69 -201 -169 -51 -51 -117 -132 -152 -185 -34 -52 -66 -100 -70
-105 -16 -22 -68 -130 -65 -137 1 -5 -2 -8 -7 -8 -5 0 -11 -8 -14 -17 -3 -10
-19 -56 -36 -102 -33 -90 -57 -172 -67 -236 -3 -22 -8 -43 -10 -46 -7 -13 -17
-157 -17 -254 0 -126 10 -242 29 -330 6 -31 22 -98 28 -122 3 -13 8 -31 10
-40 13 -54 55 -175 103 -298 30 -77 63 -163 74 -191 11 -29 22 -58 23 -65 2
-8 8 -25 14 -39 20 -46 56 -175 67 -240 2 -14 7 -36 10 -50 12 -47 14 -178 4
-216 -41 -156 -156 -350 -276 -466 -36 -35 -72 -71 -81 -80 -9 -10 -22 -18
-28 -18 -7 0 -14 -5 -16 -11 -8 -24 -38 6 -54 54 -10 29 -18 57 -19 62 -1 12
-24 94 -32 115 -3 8 -7 29 -9 45 -2 17 -5 39 -8 50 -8 34 -57 269 -60 290 -11
62 -56 217 -69 233 -5 6 -7 12 -3 12 8 0 -69 152 -110 216 -46 73 -60 90 -145
174 -70 70 -244 200 -267 200 -6 0 -12 4 -14 8 -1 5 -32 28 -67 52 -63 42 -90
63 -116 88 -8 6 -16 12 -20 12 -4 0 -12 6 -20 13 -7 6 -37 32 -66 57 -66 56
-137 127 -166 166 -25 32 -73 128 -80 159 -19 85 -23 125 -22 200 1 111 4 100
-26 109 -25 7 -31 3 -80 -59 -22 -27 -43 -51 -47 -53 -5 -2 -8 -9 -8 -15 0 -6
-6 -18 -14 -26 -21 -23 -84 -153 -91 -187 -25 -117 -21 -213 15 -324 18 -56
80 -201 90 -210 3 -3 15 -23 27 -45 11 -22 30 -56 41 -75 27 -48 139 -233 149
-245 28 -34 168 -294 175 -325 2 -8 5 -17 8 -20 14 -14 56 -149 66 -215 14
-83 8 -261 -11 -375 -5 -34 -43 -171 -54 -195 -52 -117 -95 -197 -154 -284
-76 -115 -109 -163 -117 -171 -3 -3 -21 -27 -40 -55 -19 -27 -38 -54 -42 -60
-5 -5 -52 -68 -106 -140 -53 -71 -102 -137 -109 -145 -72 -90 -163 -211 -163
-216 0 -4 -8 -14 -18 -23 -27 -24 -163 -233 -215 -331 -42 -79 -102 -215 -113
-255 -1 -5 -12 -37 -23 -69 -12 -33 -19 -62 -16 -64 3 -3 1 -10 -4 -16 -5 -6
-12 -24 -15 -41 -3 -16 -12 -61 -20 -100 -8 -38 -18 -97 -21 -130 -3 -33 -9
-87 -13 -120 -13 -121 -6 -489 12 -630 11 -79 25 -183 31 -215 3 -14 7 -38 10
-55 5 -34 10 -58 19 -95 3 -14 8 -36 10 -50 4 -25 21 -101 42 -183 3 -12 7
-33 10 -46 3 -14 7 -28 10 -33 3 -5 7 -18 9 -31 14 -77 106 -329 170 -465 25
-52 45 -98 45 -103 0 -5 5 -9 12 -9 6 0 8 -3 5 -6 -4 -4 2 -19 13 -34 11 -16
20 -31 20 -35 0 -3 27 -49 60 -102 33 -52 60 -99 60 -103 0 -5 4 -10 8 -12 5
-1 37 -46 72 -98 35 -52 67 -97 72 -98 4 -2 8 -8 8 -14 0 -5 19 -33 43 -62 23
-29 53 -68 67 -86 14 -18 30 -38 35 -44 6 -6 30 -36 55 -66 89 -109 316 -329
464 -451 16 -13 42 -35 57 -49 44 -40 69 -60 69 -55 0 2 12 -7 27 -22 23 -20
289 -222 451 -341 19 -13 151 -102 295 -198 144 -96 267 -178 274 -184 7 -5
15 -10 18 -10 4 0 73 -41 153 -92 186 -116 474 -292 493 -301 8 -4 26 -15 41
-25 15 -9 123 -73 240 -141 117 -68 230 -135 250 -147 20 -13 43 -25 50 -26 7
-2 15 -6 18 -9 10 -12 444 -224 480 -234 3 -1 30 -13 60 -27 30 -14 90 -42
133 -62 64 -29 90 -36 142 -36 60 0 179 30 231 59 11 5 91 44 179 87 88 42
163 81 166 86 3 5 9 9 13 9 3 -1 21 6 39 15 42 22 301 176 307 184 3 3 48 32
100 65 122 77 388 255 410 275 9 8 24 20 33 25 37 23 173 120 185 132 7 7 17
13 20 13 4 0 19 10 32 23 14 12 41 33 60 47 19 13 40 28 45 32 6 5 48 38 95
74 47 35 92 70 100 77 8 7 35 28 60 47 25 19 47 38 50 41 3 3 28 23 55 45 58
45 70 55 130 109 24 22 70 63 101 90 114 99 358 350 463 475 11 14 37 44 57
67 19 23 74 93 120 155 47 62 91 120 98 129 7 9 15 20 17 25 2 5 38 61 80 124
77 117 174 281 224 380 15 30 31 62 36 70 5 8 13 24 18 35 5 11 25 56 46 100
20 44 43 96 50 115 7 19 20 52 29 72 9 21 16 40 16 43 0 4 7 24 36 100 4 11 8
26 10 33 1 8 6 21 10 30 4 9 8 22 9 27 2 6 8 30 15 55 7 25 12 45 11 45 -1 0
7 32 18 70 21 78 50 218 56 274 3 20 7 47 10 61 2 14 7 43 10 65 13 116 17
154 20 197 2 26 6 52 10 58 3 5 1 10 -5 10 -6 0 -8 5 -4 11 10 17 14 112 13
364 0 259 -2 306 -12 322 -4 6 -3 14 3 18 6 4 7 11 4 17 -4 5 -8 29 -10 51 -4
51 -14 141 -19 171 -2 11 -6 37 -9 56 -3 19 -8 46 -11 60 -3 14 -7 41 -10 60
-11 80 -110 428 -144 505 -5 11 -57 142 -116 290 -107 267 -124 309 -160 393
-10 23 -18 49 -18 57 0 8 -3 15 -7 15 -3 0 -12 17 -19 38 -12 32 -50 117 -161
358 -47 101 -103 218 -200 419 -115 238 -150 313 -150 325 0 6 -4 10 -10 10
-5 0 -10 4 -10 10 0 5 -13 37 -29 70 -16 33 -27 60 -25 60 2 0 -5 17 -15 38
-11 20 -31 66 -46 102 -14 36 -30 74 -35 85 -35 72 -123 391 -135 485 -15 112
-18 165 -18 275 -1 127 6 234 17 285 3 14 11 50 17 80 18 88 68 229 112 315
23 44 40 83 39 88 -1 4 1 7 6 7 4 0 18 20 32 45 14 25 28 45 33 45 4 0 5 5 2
10 -3 6 -1 10 5 10 6 0 16 12 23 28 6 15 24 41 40 57 60 64 105 128 100 142
-7 17 -65 13 -101 -6 -12 -6 -22 -9 -22 -5 0 3 -7 1 -15 -6 -8 -7 -15 -9 -15
-5 0 4 -6 2 -13 -4 -8 -6 -22 -12 -33 -14 -10 -2 -32 -9 -47 -15 -16 -7 -33
-12 -38 -12 -5 0 -9 -4 -9 -9 0 -5 -11 -12 -24 -15 -13 -3 -45 -15 -70 -26
-26 -11 -50 -20 -54 -21 -4 0 -27 -13 -52 -27 -210 -121 -285 -206 -474 -535
-34 -59 -84 -159 -85 -170 0 -4 -7 -20 -16 -36 -21 -41 -53 -163 -65 -249 -10
-73 -13 -309 -5 -367 2 -16 7 -57 10 -90 8 -75 12 -112 19 -150 2 -16 7 -52
10 -80 4 -27 8 -61 11 -75 12 -68 18 -131 18 -185 0 -64 -10 -162 -19 -176 -3
-5 -7 -18 -10 -29 -2 -11 -6 -28 -8 -38 -7 -31 -79 -172 -88 -172 -4 0 -8 -6
-8 -14 0 -12 -98 -156 -126 -184 -8 -7 -17 -19 -21 -26 -20 -32 -145 -117
-193 -131 -3 -1 -12 -4 -20 -7 -68 -27 -182 -34 -271 -18 -181 33 -288 144
-384 400 -9 25 -19 56 -21 70 -2 14 -7 36 -11 50 -18 72 -26 153 -26 280 -1
237 24 342 124 540 24 47 44 87 45 90 12 38 18 50 25 50 5 0 9 4 9 10 0 5 33
76 73 157 79 162 139 295 136 303 -1 3 7 23 18 45 32 64 113 318 127 400 2 11
6 27 9 35 11 28 39 178 51 270 3 25 8 65 12 90 4 25 7 54 8 65 1 11 4 25 8 30
3 6 2 19 -2 30 -4 11 -4 33 0 51 8 34 5 414 -3 454 -3 14 -8 45 -11 70 -7 55
-14 95 -23 135 -4 17 -7 32 -8 35 0 3 -7 30 -15 60 -8 30 -13 58 -12 63 1 4
-2 7 -8 7 -6 0 -9 3 -8 8 8 37 -134 362 -211 482 -16 25 -30 51 -30 58 -1 6
-5 12 -11 12 -5 0 -10 7 -10 15 0 8 -4 15 -10 15 -5 0 -10 7 -10 15 0 8 -4 15
-10 15 -5 0 -10 4 -10 10 0 5 -6 18 -14 27 -8 10 -36 47 -63 83 -121 165 -285
318 -471 441 -41 27 -77 49 -81 49 -5 0 -19 8 -32 18 -40 30 -218 107 -334
145 -146 47 -251 78 -261 76 -5 -1 -12 0 -16 1 -13 4 -21 6 -68 14 -25 5 -54
10 -65 13 -61 14 -101 14 -112 2z m2367 -5972 c19 -4 58 -9 85 -12 74 -9 158
-29 335 -80 163 -46 384 -157 530 -263 121 -89 307 -291 366 -397 6 -11 27
-48 47 -83 44 -76 149 -292 178 -365 12 -28 26 -63 32 -77 6 -14 11 -27 12
-30 1 -3 7 -18 13 -33 7 -16 12 -33 12 -38 0 -5 4 -17 9 -27 33 -60 119 -364
126 -447 2 -16 4 -30 5 -30 3 0 9 -38 16 -105 12 -108 8 -515 -6 -515 -1 0 -3
-13 -4 -30 -4 -44 -15 -101 -35 -185 -7 -25 -14 -56 -17 -70 -6 -33 -113 -350
-122 -364 -3 -6 -7 -15 -8 -21 -1 -5 -18 -48 -37 -95 -96 -236 -204 -446 -342
-665 -11 -17 -29 -46 -40 -63 -10 -18 -23 -32 -27 -32 -4 0 -8 -5 -8 -11 0
-12 -127 -182 -205 -274 -27 -33 -59 -71 -70 -84 -86 -101 -501 -521 -516
-521 -5 0 -9 -7 -9 -15 0 -8 -3 -15 -8 -15 -4 0 -32 -23 -62 -51 -30 -28 -72
-65 -94 -82 -21 -18 -48 -41 -60 -52 -36 -34 -118 -99 -181 -145 -33 -24 -64
-48 -70 -52 -48 -39 -89 -68 -96 -68 -4 0 -14 -6 -22 -14 -22 -22 -285 -196
-297 -196 -5 0 -10 -4 -10 -9 0 -5 -13 -14 -30 -21 -16 -7 -30 -16 -30 -21 0
-5 -7 -9 -15 -9 -8 0 -15 -4 -15 -10 0 -5 -3 -9 -7 -8 -5 1 -33 -13 -63 -33
-30 -19 -62 -38 -70 -43 -17 -8 -39 -21 -97 -59 -24 -15 -47 -27 -53 -27 -5 0
-10 -4 -10 -9 0 -5 -10 -13 -22 -17 -13 -4 -34 -15 -48 -25 -52 -36 -115 -73
-122 -71 -5 1 -8 -2 -8 -6 0 -5 -19 -18 -42 -31 -24 -12 -52 -27 -63 -34 -11
-7 -44 -27 -75 -46 -30 -19 -57 -34 -60 -33 -3 0 -25 -9 -49 -20 -48 -22 -115
-47 -143 -54 -10 -2 -28 -7 -40 -10 -73 -19 -258 -7 -284 19 -4 4 -13 7 -21 7
-37 0 -617 293 -715 361 -14 11 -29 19 -33 19 -3 0 -25 13 -48 29 -23 15 -47
30 -53 32 -5 2 -81 49 -168 104 -87 55 -172 108 -189 119 -18 10 -33 22 -35
27 -2 5 -8 9 -13 9 -5 0 -70 40 -144 90 -74 49 -139 90 -145 90 -5 0 -10 4
-10 8 0 5 -18 18 -40 31 -22 12 -40 27 -40 32 0 6 -3 8 -8 5 -4 -2 -34 15 -67
39 -33 24 -73 54 -90 65 -68 48 -211 153 -231 169 -11 10 -45 36 -76 58 -30
23 -61 47 -69 55 -8 7 -41 35 -74 63 -137 113 -271 251 -530 542 -22 25 -58
65 -80 88 -22 24 -67 73 -100 110 -33 37 -69 77 -80 90 -11 12 -35 38 -53 58
-72 81 -177 227 -251 350 -84 139 -210 424 -241 547 -5 19 -16 62 -25 95 -10
33 -18 67 -20 75 -2 8 -10 46 -19 83 -9 37 -18 82 -20 100 -3 18 -8 52 -12 77
-13 86 -7 388 10 525 2 17 7 57 10 90 7 69 17 141 22 170 2 11 7 34 9 50 3 17
13 58 21 93 9 35 17 71 19 80 2 9 4 18 5 20 2 1 3 5 5 10 1 4 4 14 8 22 3 8
15 47 28 85 31 99 100 259 173 400 33 66 63 122 66 125 3 3 19 28 34 55 26 45
98 149 144 207 68 88 241 230 309 255 10 4 20 9 23 13 4 5 136 71 150 75 3 1
34 15 70 32 100 47 331 123 419 138 19 3 38 8 43 11 5 3 21 7 36 9 15 2 83 16
152 30 150 32 187 37 265 37 65 0 251 -10 300 -16 89 -11 141 -18 147 -22 4
-3 22 -7 40 -9 18 -3 58 -12 88 -21 30 -8 69 -19 85 -24 60 -17 178 -62 210
-80 18 -10 35 -17 38 -14 2 2 10 -2 17 -11 7 -8 20 -15 30 -15 9 0 29 -9 43
-20 14 -11 29 -20 34 -20 12 0 221 -132 396 -248 75 -51 137 -89 137 -86 0 4
6 2 13 -4 15 -13 71 -8 89 8 27 22 149 110 167 120 11 5 26 16 33 22 8 7 23
18 33 25 11 7 52 31 90 55 39 23 72 45 75 48 6 6 136 70 190 93 81 35 279 101
330 110 14 3 37 10 51 15 21 8 130 34 239 56 14 3 36 7 50 10 14 3 41 9 60 12
19 4 44 9 55 11 11 2 31 6 45 7 123 16 215 28 217 30 5 4 273 -2 303 -7z"/>
<path d="M5366 6403 c-2 -2 -29 -6 -62 -9 -32 -3 -81 -9 -109 -15 -27 -5 -67
-11 -89 -15 -46 -7 -56 -9 -124 -28 -29 -8 -55 -15 -57 -15 -3 -1 -10 -3 -17
-5 -7 -3 -38 -12 -68 -21 -30 -9 -64 -20 -75 -25 -53 -22 -121 -44 -127 -42
-5 1 -8 -2 -8 -8 0 -5 -7 -10 -16 -10 -9 0 -32 -9 -50 -21 -19 -11 -34 -18
-34 -15 0 3 -42 -16 -92 -43 -266 -138 -307 -172 -286 -233 6 -15 16 -28 24
-28 8 0 14 -4 14 -8 0 -8 11 -8 255 3 88 4 201 8 250 9 50 1 96 5 102 9 6 4
14 3 18 -3 4 -6 10 -8 15 -5 4 3 82 7 172 10 362 11 384 13 440 39 29 13 62
32 73 42 11 11 43 35 70 54 28 19 52 38 53 42 2 4 8 8 13 8 5 0 30 16 56 36
27 20 64 44 83 53 19 9 37 19 40 22 3 4 43 21 90 39 47 18 91 37 97 42 22 17
-2 42 -54 56 -26 8 -55 16 -63 19 -17 7 -25 9 -60 17 -131 28 -177 37 -221 42
-48 5 -249 11 -253 7z"/>
<path d="M8637 6404 c-2 -2 -30 -6 -63 -9 -32 -3 -72 -8 -89 -11 -16 -3 -46
-7 -65 -9 -19 -2 -51 -7 -70 -10 -19 -4 -48 -8 -65 -10 -62 -5 -85 -16 -85
-40 0 -29 7 -34 120 -80 52 -21 111 -45 130 -54 19 -9 37 -16 40 -17 3 0 12
-4 20 -7 18 -8 73 -30 80 -32 18 -6 51 -20 90 -38 79 -37 145 -30 385 39 50
14 95 27 100 28 6 1 15 4 20 7 6 4 28 10 50 14 44 9 53 11 60 15 3 1 8 3 13 4
41 10 73 17 102 20 82 11 104 23 94 51 -6 14 -24 23 -140 70 -72 29 -99 36
-194 52 -14 2 -59 6 -100 8 -41 2 -75 5 -75 5 0 4 -355 7 -358 4z"/>
<path d="M6220 6225 c-50 -13 -177 -65 -285 -115 -38 -18 -72 -33 -75 -33 -3
1 -17 -7 -31 -17 -14 -11 -32 -20 -40 -22 -8 -2 -16 -6 -19 -9 -3 -3 -39 -28
-80 -57 -95 -65 -178 -146 -200 -195 -15 -34 -16 -44 -3 -98 7 -33 23 -84 34
-114 11 -30 21 -63 22 -75 1 -11 5 -20 10 -20 4 0 5 -4 2 -10 -3 -5 -1 -28 5
-51 7 -23 13 -60 15 -83 1 -23 5 -57 8 -76 7 -38 16 -105 22 -159 3 -19 9 -59
16 -89 6 -31 13 -65 14 -76 2 -12 6 -32 10 -46 12 -46 13 -55 14 -67 1 -20 43
-58 91 -84 25 -13 47 -27 48 -31 2 -5 10 -8 18 -8 8 0 14 -4 14 -9 0 -5 8 -11
18 -14 19 -7 92 -49 132 -77 14 -9 30 -19 35 -21 11 -4 101 -58 163 -97 80
-50 123 -65 156 -55 17 5 90 49 161 98 72 49 164 111 205 139 41 28 77 54 78
59 2 4 8 7 13 7 8 0 148 95 176 119 7 6 14 11 17 11 8 0 133 89 143 102 15 20
32 75 25 83 -3 3 -7 27 -8 53 -2 71 -15 231 -20 256 -3 11 -7 41 -10 65 -2 24
-7 47 -9 51 -3 4 -7 25 -11 46 -3 22 -15 73 -26 114 -11 41 -21 83 -23 92 -9
44 -42 92 -89 128 -28 22 -56 44 -63 50 -7 5 -15 10 -18 10 -3 0 -40 25 -80
55 -41 30 -79 55 -84 55 -5 0 -11 4 -13 8 -4 10 -191 132 -202 132 -5 0 -20 8
-34 18 -39 27 -129 63 -165 66 -18 2 -52 -2 -77 -9z"/>
<path d="M7938 6219 c-8 -4 -27 -10 -42 -13 -62 -11 -152 -44 -246 -90 -88
-43 -309 -170 -320 -185 -3 -3 -29 -22 -57 -41 -29 -19 -53 -38 -53 -41 0 -3
-9 -15 -21 -28 -11 -12 -24 -34 -29 -50 -8 -29 -4 -106 7 -131 6 -16 9 -26 17
-80 2 -19 7 -46 10 -60 6 -30 15 -108 21 -175 12 -139 29 -284 38 -315 16 -61
75 -115 187 -172 14 -7 57 -34 95 -59 39 -25 77 -48 85 -52 8 -4 75 -45 149
-92 73 -47 138 -85 142 -85 5 0 9 -4 9 -10 0 -5 4 -10 10 -10 5 0 47 -24 93
-54 163 -105 198 -114 285 -68 78 41 157 84 167 92 6 4 51 29 100 55 50 26
122 64 160 85 39 21 94 51 124 67 76 41 95 69 95 141 -1 31 -4 68 -7 82 -4 14
-12 50 -18 80 -6 30 -15 73 -19 95 -5 22 -11 54 -14 70 -3 17 -13 62 -21 100
-9 39 -18 86 -21 105 -2 19 -9 51 -14 70 -5 19 -12 53 -16 75 -3 22 -7 42 -9
45 -2 3 -6 25 -10 50 -4 25 -8 48 -11 51 -2 4 -6 24 -10 44 -7 44 -9 54 -24
119 -16 73 -36 100 -104 139 -97 57 -180 90 -356 147 -91 29 -199 63 -240 77
-87 29 -112 33 -132 22z"/>
<path d="M10585 4856 c-131 -74 -260 -189 -370 -331 -38 -49 -80 -101 -92
-115 -173 -198 -185 -224 -177 -409 3 -69 6 -183 8 -252 2 -70 6 -131 10 -138
4 -6 4 -11 -1 -11 -4 0 -8 -29 -8 -65 0 -36 -5 -113 -12 -173 -7 -59 -15 -134
-18 -167 -3 -33 -8 -69 -9 -80 -2 -11 -1 -24 2 -30 3 -5 7 -25 9 -43 5 -47 34
-101 108 -200 28 -38 84 -92 95 -92 18 0 85 75 131 145 21 33 42 65 47 70 40
49 171 315 211 430 12 33 24 67 28 75 3 8 7 20 9 25 1 6 12 37 24 70 12 33 24
69 26 80 3 11 8 27 11 35 3 8 8 22 10 30 5 21 7 25 37 122 15 48 29 97 31 108
2 11 6 24 9 28 2 4 7 27 11 52 4 25 9 48 12 53 24 39 38 376 17 439 -3 10 -7
33 -9 51 -4 34 -13 83 -18 107 -2 8 -10 43 -17 77 -21 95 -65 137 -115 109z"/>
<path d="M5620 4633 c-14 -2 -34 -8 -45 -13 -11 -5 -47 -18 -80 -30 -98 -35
-262 -119 -390 -199 -66 -41 -124 -79 -130 -84 -15 -12 -109 -80 -135 -97 -13
-8 -41 -30 -61 -48 -37 -32 -38 -36 -34 -85 2 -29 5 -52 5 -52 1 0 3 -20 5
-45 1 -25 3 -45 5 -45 1 0 3 -22 4 -50 3 -47 6 -73 22 -207 4 -29 8 -69 9 -88
0 -20 3 -40 6 -45 3 -6 5 -27 5 -47 -1 -21 3 -38 7 -38 5 0 6 -4 3 -9 -4 -5
-2 -42 3 -83 6 -40 12 -93 15 -118 14 -112 19 -138 38 -182 26 -62 82 -111
149 -133 30 -9 77 -27 104 -39 28 -13 61 -27 75 -31 28 -8 86 -32 112 -46 10
-5 22 -9 28 -9 6 0 32 -9 58 -21 26 -12 56 -25 67 -29 11 -4 48 -19 82 -33 33
-14 64 -23 67 -20 3 4 6 1 6 -5 0 -7 6 -12 13 -12 7 0 76 -25 152 -56 115 -46
148 -55 182 -51 43 5 57 17 159 135 16 19 43 48 59 66 17 18 55 61 85 97 30
35 64 73 75 84 57 60 182 210 198 238 23 42 17 112 -21 232 -38 120 -63 202
-66 217 -2 7 -17 60 -35 118 -18 58 -42 137 -53 175 -12 39 -34 111 -49 160
-16 50 -29 96 -29 103 0 45 -78 137 -147 173 -15 8 -32 17 -38 22 -25 19 -85
56 -85 52 0 -2 -24 12 -52 31 -29 19 -58 34 -65 34 -7 0 -13 5 -13 10 0 6 -3
9 -7 8 -5 0 -43 16 -87 36 -100 48 -145 63 -176 59z"/>
<path d="M8990 4557 c-54 -21 -68 -27 -155 -67 -145 -68 -328 -147 -427 -185
-50 -20 -106 -45 -124 -56 -30 -18 -60 -72 -70 -126 -2 -12 -9 -34 -14 -48 -5
-14 -7 -25 -5 -25 2 0 0 -12 -6 -27 -6 -16 -13 -37 -14 -48 -2 -11 -13 -63
-25 -115 -11 -52 -22 -108 -25 -125 -5 -42 -15 -97 -20 -115 -5 -21 -17 -90
-19 -120 -2 -14 -6 -38 -9 -55 -11 -50 -18 -98 -22 -145 -4 -38 0 -52 27 -90
18 -25 36 -46 40 -48 4 -2 8 -8 8 -14 0 -6 10 -22 23 -37 12 -15 33 -42 46
-60 31 -40 176 -181 187 -181 3 0 18 -12 34 -27 16 -16 54 -50 86 -78 31 -27
71 -63 88 -79 62 -58 113 -96 129 -96 9 0 18 -4 21 -8 5 -8 50 -8 86 0 9 2 42
19 75 38 33 18 157 83 275 143 118 60 241 125 273 143 32 19 60 34 63 34 13 0
210 137 240 166 51 52 65 86 69 177 2 45 7 138 11 207 9 190 9 308 -1 385 -4
39 -10 84 -11 100 -1 17 -3 30 -4 30 -1 0 -2 29 -4 65 -1 36 -8 74 -15 85 -8
11 -50 38 -95 60 -94 46 -282 154 -343 196 -23 16 -44 29 -48 29 -3 0 -29 15
-58 33 -125 80 -210 107 -267 84z"/>
<path d="M3621 4524 c-27 -19 -40 -67 -40 -149 0 -38 0 -122 -1 -185 -1 -63 4
-140 10 -170 7 -30 13 -65 15 -77 2 -12 6 -27 10 -33 3 -5 8 -23 11 -38 3 -15
12 -49 21 -77 9 -27 18 -54 19 -60 1 -5 12 -44 24 -85 24 -84 23 -83 45 -165
9 -33 20 -69 25 -80 5 -11 12 -31 16 -45 15 -54 96 -204 151 -279 81 -111 143
-180 331 -365 184 -183 177 -176 200 -176 23 0 42 15 78 65 16 22 34 45 39 51
6 6 19 23 30 38 11 16 46 61 78 102 75 96 107 157 101 192 -8 54 -14 87 -20
112 -3 14 -7 35 -10 48 -7 38 -14 71 -19 95 -7 38 -18 121 -19 150 -1 15 -3
27 -6 27 -3 0 -5 13 -4 30 0 16 -3 56 -7 88 -5 33 -11 110 -13 173 -3 63 -6
114 -7 114 0 0 -3 20 -5 45 -6 60 -40 168 -65 202 -10 15 -19 31 -19 35 0 14
-111 123 -126 123 -3 0 -18 8 -32 18 -24 16 -84 41 -247 101 -27 11 -59 22
-70 26 -11 5 -24 9 -30 11 -5 1 -68 23 -140 49 -71 25 -150 53 -175 61 -25 8
-54 19 -65 24 -39 16 -64 18 -84 4z"/>
<path d="M7495 3082 c-2 -2 -178 -4 -391 -6 -292 -1 -389 -5 -392 -14 -2 -7
-10 -12 -18 -12 -18 0 -86 -66 -140 -135 -21 -27 -45 -58 -54 -67 -8 -9 -19
-23 -25 -30 -5 -8 -30 -38 -55 -68 -25 -30 -52 -63 -60 -74 -8 -10 -25 -29
-37 -43 -11 -13 -35 -42 -53 -63 -18 -21 -43 -51 -57 -67 -38 -40 -64 -103
-52 -125 5 -10 8 -18 5 -18 -3 0 11 -46 30 -102 20 -57 37 -107 38 -113 5 -23
18 -61 26 -80 5 -11 23 -63 41 -115 67 -200 94 -235 221 -298 79 -39 214 -89
267 -99 14 -2 28 -6 32 -9 9 -5 101 -24 149 -30 19 -2 44 -6 55 -8 44 -10 185
-21 270 -20 234 1 464 38 560 89 82 45 101 59 142 109 23 28 72 87 108 131 37
44 95 123 131 175 85 128 226 411 231 465 5 46 -3 57 -173 235 -40 41 -95 100
-124 130 -203 216 -231 240 -300 256 -33 7 -368 13 -375 6z"/>
<path d="M6349 1519 c-7 -4 -16 -6 -20 -4 -3 3 -35 -7 -70 -21 -35 -14 -68
-27 -74 -28 -5 -2 -19 -7 -30 -11 -89 -36 -242 -98 -252 -102 -6 -2 -13 -12
-16 -22 -12 -47 28 -82 208 -176 61 -32 117 -63 125 -70 25 -19 617 -311 750
-369 141 -62 199 -83 254 -92 21 -3 48 -8 60 -10 74 -17 135 -20 181 -11 17 3
53 9 80 13 28 3 53 8 56 10 3 2 21 6 40 9 38 6 239 104 239 117 0 4 9 8 20 8
11 0 20 5 20 10 0 6 4 10 9 10 9 0 428 240 473 271 15 11 38 24 50 29 81 36
116 77 104 124 -5 20 -19 33 -54 49 -26 12 -49 21 -52 22 -3 0 -18 5 -35 12
-99 38 -202 75 -217 78 -9 2 -25 8 -36 14 -10 5 -47 19 -83 31 -35 12 -71 24
-79 27 -33 13 -74 14 -128 2 -31 -7 -60 -12 -64 -11 -5 1 -8 -1 -8 -6 0 -4
-13 -8 -28 -9 -15 -1 -41 -5 -57 -8 -187 -38 -624 -38 -732 0 -7 2 -13 -1 -13
-7 0 -7 -4 -7 -12 -1 -7 6 -20 11 -28 11 -16 1 -72 9 -80 12 -3 2 -8 2 -12 1
-4 0 -31 4 -60 10 -29 6 -66 13 -83 15 -16 3 -41 8 -55 10 -14 3 -35 7 -47 10
-13 2 -33 6 -45 8 -13 3 -37 8 -54 11 -17 3 -54 14 -82 24 -29 11 -55 15 -63
10z"/>
</g>
</svg>
